<?xml version="1.0" encoding="UTF-8" standalone="no"?>
<!-- Created with Inkscape (http://www.inkscape.org/) -->

<svg
   width="144"
   height="202"
   viewBox="0 0 38.1 53.445833"
   version="1.1"
   id="svg141"
   xml:space="preserve"
   inkscape:version="1.2.2 (732a01da63, 2022-12-09)"
   sodipodi:docname="flag.svg"
   xmlns:inkscape="http://www.inkscape.org/namespaces/inkscape"
   xmlns:sodipodi="http://sodipodi.sourceforge.net/DTD/sodipodi-0.dtd"
   xmlns="http://www.w3.org/2000/svg"
   xmlns:svg="http://www.w3.org/2000/svg"><sodipodi:namedview
     id="namedview143"
     pagecolor="#ffffff"
     bordercolor="#000000"
     borderopacity="0.25"
     inkscape:showpageshadow="2"
     inkscape:pageopacity="0.0"
     inkscape:pagecheckerboard="0"
     inkscape:deskcolor="#d1d1d1"
     inkscape:document-units="mm"
     showgrid="false"
     showguides="true"
     inkscape:zoom="2.9540685"
     inkscape:cx="-11.001776"
     inkscape:cy="94.276758"
     inkscape:window-width="1349"
     inkscape:window-height="1032"
     inkscape:window-x="276"
     inkscape:window-y="44"
     inkscape:window-maximized="0"
     inkscape:current-layer="layer2" /><defs
     id="defs138"><style
       id="style145">.cls-1{fill:#231815;}</style><style
       id="style254">.cls-1{fill:#231815;}</style></defs><g
     inkscape:groupmode="layer"
     id="layer2"
     inkscape:label="Layer 2"
     style="display:inline"
     sodipodi:insensitive="true"><path
       style="fill:#022c5e;fill-opacity:1;stroke-width:0.264583"
       d="M 7.6293945e-7,1.0172525e-6 0,53.445833 19.05,42.8625 38.1,53.445833 38.099997,1.0172525e-6 Z"
       id="path4798"
       sodipodi:nodetypes="cccccc"
       inkscape:label="path4798" /></g><g
     inkscape:label="Layer 1"
     inkscape:groupmode="layer"
     id="layer1"
     style="display:inline"
     sodipodi:insensitive="true"><g
       id="レイヤー_1-2"
       data-name="レイヤー 1"
       transform="matrix(0.2410416,0,0,0.2410416,7.14375,10.054167)"
       style="fill:#ffffff"><path
         class="cls-1"
         d="M 19.2734,60.5527 H 79.8271 V 0 H 19.2734 Z M 78.0556,58.8579 H 21.0478 l 5.7959,-5.8731 V 7.5678 l -5.7959,-5.873 h 57.0078 l -5.7959,5.873 v 45.417 z m -14.1142,-18.48 c 0.1133,0.3101 0.1133,0.416 0.042,0.458 -0.0664,0.0381 -0.1856,0.0269 -0.3584,-0.2441 L 63.6064,40.561 63.5957,40.542 A 22.01542,22.01542 0 0 1 61.40231,35.4126 20.90187,20.90187 0 0 1 60.7812,29.6718 c -0.0088,-4.1958 -1.1474,-4.7021 -4.4385,-4.9721 -4.10739,-0.336 -4.5156,2.1553 -4.667,2.9199 -0.4892,2.459 -0.8183,4.6133 -0.371,5.2012 a 14.39392,14.39392 0 0 1 1.4287,2.5918 c 1.1035,2.205 2.7714,8.5312 3.6572,12.0654 0.0889,0.354 0.1172,0.4658 0.0469,0.5068 -0.0713,0.042 -0.20219,0.0469 -0.3711,-0.352 -1.2032,-2.8779 -3.2256,-7.5791 -3.9307,-9.1499 -1.0088,-2.2471 -2.1768,-2.7642 -2.584,-2.7642 h -0.0019 c -0.4073,0 -1.5752,0.5171 -2.583,2.7642 -0.7061,1.5708 -2.7286,6.272 -3.9317,9.1499 -0.1689,0.3989 -0.29979,0.394 -0.3711,0.352 -0.0693,-0.041 -0.042,-0.1528 0.0479,-0.5068 0.8857,-3.5342 2.5537,-9.8604 3.6562,-12.0654 a 14.32841,14.32841 0 0 1 1.4297,-2.5918 c 0.4463,-0.5879 0.1172,-2.7422 -0.3711,-5.2012 -0.1523,-0.7646 -0.5605,-3.2559 -4.667,-2.9199 -3.291,0.27 -4.4306,0.7763 -4.43939,4.9721 a 20.90273,20.90273 0 0 1 -0.62111,5.7408 22.04643,22.04643 0 0 1 -2.1924,5.1294 l -0.0117,0.019 -0.0186,0.0308 c -0.1728,0.271 -0.292,0.2822 -0.3584,0.2441 -0.0703,-0.042 -0.0703,-0.1479 0.042,-0.458 a 20.29565,20.29565 0 0 0 1.1416,-6.2891 c 0,-1.8798 -0.2002,-8.3139 0.01861,-9.5678 C 36.54,23.2636 36.1787,21.4248 39.705,20.4038 a 41.35939,41.35939 0 0 1 4.294,-0.9771 c 0.9072,-0.229 2.251,-0.248 2.7187,-1.2251 0.6768,-1.4179 0.8721,-3.8349 1.9981,-5.1919 a 2.51837,2.51837 0 0 0 0.4199,-0.6098 c 0.1699,-0.3789 0.3838,-0.4444 0.415,-0.4444 0.0312,0 0.2461,0.0655 0.4161,0.4444 a 2.49071,2.49071 0 0 0 0.4199,0.6098 c 1.126,1.357 1.3203,3.774 1.9971,5.1919 0.4677,0.9771 1.81151,0.9961 2.7187,1.2251 a 41.35387,41.35387 0 0 1 4.2939,0.9771 c 3.5274,1.021 3.1651,2.8598 3.3848,4.1172 0.2178,1.2539 0.0195,7.688 0.0195,9.5678 a 20.29958,20.29958 0 0 0 1.1407,6.2891 z"
         id="path260"
         style="fill:#ffffff" /><polygon
         class="cls-1"
         points="6.235,77.932 6.235,91.967 4.55,91.967 4.55,77.932 0,77.932 0,76.51 10.805,76.51 10.805,77.932 "
         id="polygon262"
         style="fill:#ffffff" /><path
         class="cls-1"
         d="m 20.61131,86.3408 c 0,4.1225 -2.72171,5.8696 -5.17871,5.8696 -2.8447,0 -5.0371,-2.1328 -5.0371,-5.708 0,-3.7768 2.3554,-5.8686 5.1787,-5.8686 3.0264,0 5.03711,2.3149 5.03711,5.707 M 15.5136,81.9536 c -2.3964,0 -3.3925,2.3559 -3.3925,4.4883 0,2.458 1.3613,4.4487 3.3525,4.4487 2.0098,0 3.4121,-1.9907 3.4121,-4.4888 0,-1.9702 -0.9541,-4.4482 -3.3721,-4.4482"
         id="path264"
         style="fill:#ffffff" /><path
         class="cls-1"
         d="m 31.7568,91.9668 h -2.0723 l -3.8173,-5.4639 -1.0166,1.1577 v 4.3062 H 23.166 V 75.7177 h 1.6846 v 10.33938 h 0.041 c 0.2646,-0.38618 0.6504,-0.874 0.9541,-1.23928 l 3.3115,-3.9199 h 2.0312 l -4.164,4.5689 z"
         id="path266"
         style="fill:#ffffff" /><path
         class="cls-1"
         d="m 42.0088,80.8974 -2.9454,7.8404 c -1.3203,3.5947 -2.2548,5.667 -3.6357,6.9668 a 5.58253,5.58253 0 0 1 -2.2539,1.2988 L 32.706,95.5825 a 6.32151,6.32151 0 0 0 3.5742,-3.9819 1.39821,1.39821 0 0 0 -0.122,-0.4659 l -3.919,-10.2373 h 1.8477 l 2.4179,6.7232 c 0.2833,0.7719 0.5274,1.645 0.711,2.3149 h 0.06051 c 0.18169,-0.6699 0.44629,-1.5029 0.71,-2.3559 l 2.23439,-6.6822 z"
         id="path268"
         style="fill:#ffffff" /><path
         class="cls-1"
         d="m 53.27631,86.3408 c 0,4.1225 -2.72161,5.8696 -5.17971,5.8696 -2.8427,0 -5.0361,-2.1328 -5.0361,-5.708 0,-3.7768 2.3565,-5.8686 5.1787,-5.8686 3.0264,0 5.03711,2.3149 5.03711,5.707 M 48.1787,81.9536 c -2.3975,0 -3.3926,2.3559 -3.3926,4.4883 0,2.458 1.3603,4.4487 3.3516,4.4487 2.0107,0 3.4121,-1.9907 3.4121,-4.4888 0,-1.9702 -0.9541,-4.4482 -3.3711,-4.4482"
         id="path270"
         style="fill:#ffffff" /><polygon
         class="cls-1"
         points="63.788,77.932 63.788,91.967 62.103,91.967 62.103,77.932 57.554,77.932 57.554,76.51 68.358,76.51 68.358,77.932 "
         id="polygon272"
         style="fill:#ffffff" /><path
         class="cls-1"
         d="m 76.19531,91.4995 a 8.0235,8.0235 0 0 1 -3.47371,0.6914 c -3.2294,0 -5.1591,-2.2764 -5.1591,-5.5859 0,-3.4732 1.9502,-5.9712 4.9355,-5.9712 3.4121,0 4.2871,3.1269 4.2871,5.0571 0,0.3857 -0.0224,0.6699 -0.042,0.9336 H 69.207 c 0.0205,3.0683 1.7676,4.2251 3.7578,4.2251 a 7.006,7.006 0 0 0 2.9053,-0.5689 z M 75.1181,85.3657 c 0.0196,-1.5029 -0.6103,-3.4531 -2.7832,-3.4531 -2.0302,0 -2.9238,1.9301 -3.0859,3.4531 z"
         id="path274"
         style="fill:#ffffff" /><path
         class="cls-1"
         d="m 87.1777,91.5605 a 7.05718,7.05718 0 0 1 -3.0049,0.6299 c -3.1689,0 -5.2627,-2.2549 -5.2627,-5.647 0,-3.4121 2.2549,-5.9096 5.667,-5.9096 a 6.08762,6.08762 0 0 1 2.6611,0.5888 l -0.4257,1.3609 a 4.49719,4.49719 0 0 0 -2.2754,-0.5689 c -2.5586,0 -3.8994,2.0508 -3.8994,4.4268 0,2.6821 1.6045,4.3681 3.8388,4.3681 a 5.54053,5.54053 0 0 0 2.3955,-0.5488 z"
         id="path276"
         style="fill:#ffffff" /><path
         class="cls-1"
         d="m 98.79,91.9668 h -1.6855 v -6.5401 c 0,-1.8081 -0.6504,-3.372 -2.5586,-3.372 a 3.01528,3.01528 0 0 0 -2.9248,3.10838 V 91.9668 H 89.9355 V 75.7177 h 1.6856 v 6.8863 h 0.041 a 4.06489,4.06489 0 0 1 3.4326,-1.9702 c 1.3594,0 3.6953,0.832 3.6953,4.59028 z"
         id="path278"
         style="fill:#ffffff" /></g></g></svg>
